{
  "accessors": [
    {
      "bufferView": 3,
      "componentType": 5126,
      "count": 1785,
      "max": [
        364.31768798828125,
        1205.7330322265625,
        115.55699920654297
      ],
      "min": [
        -364.3179016113281,
        -0.5291982889175415,
        -240.37120056152344
      ],
      "type": "VEC3"
    },
    {
      "bufferView": 3,
      "byteOffset": 21420,
      "componentType": 5126,
      "count": 1785,
      "max": [
        0.9991609454154968,
        0.999221682548523,
        1.0
      ],
      "min": [
        -0.999123215675354,
        -0.9999462366104126,
        -0.9999814033508301
      ],
      "type": "VEC3"
    },
    {
      "bufferView": 2,
      "componentType": 5126,
      "count": 1785,
      "max": [
        0.7991021871566772,
        0.9950010180473328
      ],
      "min": [
        0.006648540031164885,
        0.005159198772162199
      ],
      "type": "VEC2"
    },
    {
      "bufferView": 2,
      "byteOffset": 14280,
      "componentType": 5126,
      "count": 1785,
      "max": [
        0.7991021871566772,
        0.9950010180473328
      ],
      "min": [
        0.006648540031164885,
        0.005159198772162199
      ],
      "type": "VEC2"
    },
    {
      "bufferView": 1,
      "componentType": 5125,
      "count": 7995,
      "type": "SCALAR"
    },
    {
      "bufferView": 5,
      "componentType": 5126,
      "count": 80,
      "max": [
        1.0,
        0.9985000491142273,
        1.0,
        0.0,
        1.0,
        1.0,
        0.9236189126968384,
        0.0,
        0.9999983906745911,
        1.0,
        1.0,
        0.0,
        1015.76806640625,
        1091.8380126953125,
        887.6492919921875,
        1.0
      ],
      "min": [
        -0.9285311102867126,
        -0.9984999895095825,
        -0.9978642463684082,
        0.0,
        -0.9999996423721313,
        -0.9999996423721313,
        -0.9236185550689697,
        0.0,
        -0.9824292063713074,
        -0.9974315166473389,
        -0.9999004602432251,
        0.0,
        -1014.385009765625,
        -1029.3560791015625,
        -887.649169921875,
        1.0
      ],
      "type": "MAT4"
    },
    {
      "bufferView": 0,
      "componentType": 5123,
      "count": 1785,
      "type": "VEC4"
    },
    {
      "bufferView": 4,
      "componentType": 5126,
      "count": 1785,
      "max": [
        1.0,
        0.5,
        0.3333333432674408,
        0.2240000069141388
      ],
      "min": [
        0.2942342162132263,
        0.0,
        0.0,
        0.0
      ],
      "type": "VEC4"
    }
  ],
  "asset": {
    "extras": {
      "author": "Guilherme Navarro (https://sketchfab.com/guinavarro.al)",
      "license": "CC-BY-4.0 (http://creativecommons.org/licenses/by/4.0/)",
      "source": "https://sketchfab.com/3d-models/elsa-frozen-d4097364e86444cdbd8030d4b1974e01",
      "title": "Elsa (Frozen)"
    },
    "generator": "Sketchfab-17.17.0",
    "version": "2.0"
  },
  "bufferViews": [
    {
      "buffer": 0,
      "byteLength": 14280,
      "byteStride": 8,
      "name": "shortBufferViews",
      "target": 34962
    },
    {
      "buffer": 0,
      "byteLength": 31980,
      "byteOffset": 14280,
      "name": "floatBufferViews",
      "target": 34963
    },
    {
      "buffer": 0,
      "byteLength": 28560,
      "byteOffset": 46260,
      "byteStride": 8,
      "name": "floatBufferViews",
      "target": 34962
    },
    {
      "buffer": 0,
      "byteLength": 42840,
      "byteOffset": 74820,
      "byteStride": 12,
      "name": "floatBufferViews",
      "target": 34962
    },
    {
      "buffer": 0,
      "byteLength": 28560,
      "byteOffset": 117660,
      "byteStride": 16,
      "name": "floatBufferViews",
      "target": 34962
    },
    {
      "buffer": 0,
      "byteLength": 5120,
      "byteOffset": 146220,
      "name": "floatBufferViews"
    }
  ],
  "buffers": [
    {
      "byteLength": 151340,
      "uri": "scene.bin"
    }
  ],
  "images": [
    {
      "uri": "textures/elsa_mat_baseColor.png"
    }
  ],
  "materials": [
    {
      "doubleSided": true,
      "name": "elsa_mat",
      "pbrMetallicRoughness": {
        "baseColorTexture": {
          "index": 0
        },
        "metallicFactor": 0.0,
        "roughnessFactor": 0.7695325358172087
      }
    }
  ],
  "meshes": [
    {
      "name": "elsa_lod0_elsa_mat_0",
      "primitives": [
        {
          "attributes": {
            "JOINTS_0": 6,
            "NORMAL": 1,
            "POSITION": 0,
            "TEXCOORD_0": 2,
            "TEXCOORD_1": 2,
            "TEXCOORD_2": 3,
            "TEXCOORD_3": 2,
            "TEXCOORD_4": 2,
            "TEXCOORD_5": 2,
            "TEXCOORD_6": 2,
            "TEXCOORD_7": 2,
            "TEXCOORD_8": 2,
            "TEXCOORD_9": 2,
            "WEIGHTS_0": 7
          },
          "indices": 4,
          "material": 0,
          "mode": 4
        }
      ]
    }
  ],
  "nodes": [
    {
      "children": [
        1
      ],
      "matrix": [
        1.0,
        0.0,
        0.0,
        0.0,
        0.0,
        2.220446049250313e-16,
        -1.0,
        0.0,
        0.0,
        1.0,
        2.220446049250313e-16,
        0.0,
        0.0,
        0.0,
        0.0,
        1.0
      ],
      "name": "Sketchfab_model"
    },
    {
      "children": [
        2
      ],
      "matrix": [
        0.02539999969303608,
        0.0,
        0.0,
        0.0,
        0.0,
        0.0,
        0.02539999969303608,
        0.0,
        0.0,
        -0.02539999969303608,
        0.0,
        0.0,
        0.0,
        0.0,
        0.0,
        1.0
      ],
      "name": "elsa_costume_basic.fbx"
    },
    {
      "children": [
        3
      ],
      "name": "RootNode"
    },
    {
      "children": [
        4,
        6,
        5
      ],
      "name": "Object_3"
    },
    {
      "children": [
        7
      ],
      "name": "_rootJoint"
    },
    {
      "matrix": [
        1.0,
        1.1102230246251565e-16,
        1.3877787807814457e-17,
        0.0,
        1.387778780781445e-17,
        6.123233995736766e-17,
        -1.0,
        0.0,
        -1.1102230246251565e-16,
        1.0,
        6.123233995736766e-17,
        0.0,
        5.684341886080802e-14,
        0.0,
        7.105427357601002e-15,
        1.0
      ],
      "name": "Object_5"
    },
    {
      "mesh": 0,
      "name": "Object_6",
      "skin": 0
    },
    {
      "children": [
        8,
        16,
        19,
        22,
        25,
        28,
        31,
        34
      ],
      "name": "Bip001_Pelvis_00",
      "rotation": [
        0.5000012516975403,
        0.5000002384185791,
        0.4999987483024597,
        0.4999997317790985
      ],
      "scale": [
        0.3937009871006012,
        0.3937009871006012,
        0.3937009871006012
      ],
      "translation": [
        5.040049927629298e-06,
        253.9373016357422,
        -0.9716818928718567
      ]
    },
    {
      "children": [
        9,
        12,
        15
      ],
      "name": "Bip001_Spine_01",
      "rotation": [
        -2.1227335764706368e-06,
        -7.809647399881214e-07,
        0.03078022226691246,
        0.9995262026786804
      ],
      "translation": [
        65.16094970703125,
        -0.10787749290466309,
        8.518493268638849e-05
      ]
    },
    {
      "children": [
        10
      ],
      "name": "Bip001_L_Calf_02",
      "rotation": [
        0.03385336697101593,
        0.9988923668861389,
        0.03243653476238251,
        -0.0039810859598219395
      ],
      "translation": [
        -378.26336669921875,
        25.486597061157227,
        56.70040512084961
      ]
    },
    {
      "children": [
        11
      ],
      "name": "Bip001_L_Foot_03",
      "rotation": [
        -0.08828318864107132,
        -0.00456920824944973,
        -0.003667952958494425,
        0.9960781931877136
      ],
      "translation": [
        284.1903076171875,
        -1.2874603271484375e-05,
        4.1961669921875e-05
      ]
    },
    {
      "name": "Bip001_L_Toe0_04",
      "rotation": [
        -7.957425950805286e-13,
        7.957425950805286e-13,
        0.7071068286895752,
        0.7071068286895752
      ],
      "translation": [
        40.11552429199219,
        57.17908477783203,
        -0.7517242431640625
      ]
    },
    {
      "children": [
        13
      ],
      "name": "Bip001_R_Calf_05",
      "rotation": [
        0.033853355795145035,
        0.9988924860954285,
        -0.03243379667401314,
        0.003981085494160652
      ],
      "translation": [
        -378.2635803222656,
        25.4869327545166,
        -56.700462341308594
      ]
    },
    {
      "children": [
        14
      ],
      "name": "Bip001_R_Foot_06",
      "rotation": [
        0.08828309923410416,
        0.004569219890981913,
        -0.003667952260002494,
        0.9960781931877136
      ],
      "translation": [
        284.19024658203125,
        4.76837158203125e-06,
        4.9591064453125e-05
      ]
    },
    {
      "name": "Bip001_R_Toe0_07",
      "rotation": [
        1.2240540612357131e-12,
        -1.2240539528154959e-12,
        0.7071068286895752,
        0.7071068286895752
      ],
      "translation": [
        40.11550521850586,
        57.17908477783203,
        0.7517318725585938
      ]
    },
    {
      "name": "Bip001_Spine1_08",
      "rotation": [
        2.3970916362969774e-09,
        1.0338221390071567e-09,
        -0.015293714590370655,
        0.9998830556869507
      ],
      "translation": [
        76.40240478515625,
        -0.06251907348632813,
        -5.43743371963501e-05
      ]
    },
    {
      "children": [
        17
      ],
      "name": "Bip001_L_Skirt_Back_09",
      "rotation": [
        0.020979242399334908,
        0.13665123283863068,
        0.987400472164154,
        -0.07698608934879303
      ],
      "translation": [
        11.9578857421875,
        -73.81953430175781,
        33.886375427246094
      ]
    },
    {
      "children": [
        18
      ],
      "name": "Bip001_L_Skirt_Back02_010",
      "rotation": [
        4.014743648639296e-09,
        4.6078851845265945e-09,
        -0.012222950346767902,
        0.9999253153800964
      ],
      "translation": [
        187.39950561523438,
        -0.151763916015625,
        1.9073486328125e-05
      ]
    },
    {
      "name": "Bip001_L_Skirt_Back03_011",
      "rotation": [
        1.9805810325124185e-08,
        -2.3854275355006394e-07,
        0.07207581400871277,
        0.9973992705345154
      ],
      "translation": [
        190.63067626953125,
        -0.214874267578125,
        1.71661376953125e-05
      ]
    },
    {
      "children": [
        20
      ],
      "name": "Bip001_L_Skirt_Front_012",
      "rotation": [
        0.014024633914232254,
        -0.12368144094944,
        0.9909675717353821,
        0.0498947836458683
      ],
      "translation": [
        6.99200439453125,
        52.360740661621094,
        41.731807708740234
      ]
    },
    {
      "children": [
        21
      ],
      "name": "Bip001_L_Skirt_Front02_013",
      "rotation": [
        0.013657762669026852,
        0.0001776092976797372,
        0.013804826885461807,
        0.9998114109039307
      ],
      "translation": [
        179.92721557617188,
        -0.15301513671875,
        -0.00418853759765625
      ]
    },
    {
      "name": "Bip001_L_Skirt_Front03_014",
      "rotation": [
        0.013658599928021431,
        -8.137677650665864e-05,
        -0.0051541877910494804,
        0.9998934268951416
      ],
      "translation": [
        192.29196166992188,
        -0.2254791259765625,
        -0.0061798095703125
      ]
    },
    {
      "children": [
        23
      ],
      "name": "Bip001_L_Skirt_Side_015",
      "rotation": [
        -0.046769801527261734,
        0.7092981934547424,
        -0.7013678550720215,
        -0.052837930619716644
      ],
      "translation": [
        6.06719970703125,
        -10.750250816345215,
        81.65558624267578
      ]
    },
    {
      "children": [
        24
      ],
      "name": "Bip001_L_Skirt_Side02_016",
      "rotation": [
        -0.00010280524293193594,
        -0.0001486341207055375,
        0.04365194961428642,
        0.999046802520752
      ],
      "translation": [
        181.65896606445313,
        -0.1527099609375,
        3.24249267578125e-05
      ]
    },
    {
      "name": "Bip001_L_Skirt_Side03_017",
      "rotation": [
        0.0003320200485177338,
        0.00042914305231533945,
        -0.03451651707291603,
        0.9994040727615356
      ],
      "translation": [
        192.49258422851563,
        -0.223388671875,
        -0.00013875961303710938
      ]
    },
    {
      "children": [
        26
      ],
      "name": "Bip001_R_Skirt_Back__018",
      "rotation": [
        -0.020978935062885284,
        -0.13665246963500977,
        0.9874002933502197,
        -0.07698621600866318
      ],
      "translation": [
        11.957763671875,
        -73.81961822509766,
        -33.886260986328125
      ]
    },
    {
      "children": [
        27
      ],
      "name": "Bip001_R_Skirt_Back_02_019",
      "rotation": [
        9.629793851217983e-09,
        7.346226738036421e-08,
        -0.01222294196486473,
        0.9999253153800964
      ],
      "translation": [
        187.39959716796875,
        -0.1517486572265625,
        -1.9073486328125e-05
      ]
    },
    {
      "name": "Bip001_R_Skirt_Back_03_020",
      "rotation": [
        -2.5541677928231366e-07,
        -1.5656111074235923e-08,
        0.07207577675580978,
        0.9973992705345154
      ],
      "translation": [
        190.63076782226563,
        -0.2149810791015625,
        -3.24249267578125e-05
      ]
    },
    {
      "children": [
        29
      ],
      "name": "Bip001_R_Skirt_Front_021",
      "rotation": [
        -0.014024765230715275,
        0.1236797645688057,
        0.9909677505493164,
        0.049894772469997406
      ],
      "translation": [
        6.991943359375,
        52.36064910888672,
        -41.73196029663086
      ]
    },
    {
      "children": [
        30
      ],
      "name": "Bip001_R_Skirt_Front02_022",
      "rotation": [
        -0.01365769375115633,
        -0.0001777479046722874,
        0.013804850168526173,
        0.9998114109039307
      ],
      "translation": [
        179.927001953125,
        -0.15301513671875,
        0.004184722900390625
      ]
    },
    {
      "name": "Bip001_R_Skirt_Front03_023",
      "rotation": [
        -0.013658574782311916,
        8.126539614750072e-05,
        -0.00515395263209939,
        0.9998934268951416
      ],
      "translation": [
        192.29190063476563,
        -0.2254486083984375,
        0.006175994873046875
      ]
    },
    {
      "children": [
        32
      ],
      "name": "Bip001_R_Skirt_Side_024",
      "rotation": [
        -0.04677002131938934,
        0.7092970013618469,
        0.7013689875602722,
        0.05283798277378082
      ],
      "translation": [
        6.0673828125,
        -10.750472068786621,
        -81.65565490722656
      ]
    },
    {
      "children": [
        33
      ],
      "name": "Bip001_R_Skirt_Side02_025",
      "rotation": [
        0.00010289291094522923,
        0.00014835406909696758,
        0.04365180432796478,
        0.999046802520752
      ],
      "translation": [
        181.65914916992188,
        -0.152740478515625,
        8.881784197001252e-16
      ]
    },
    {
      "name": "Bip001_R_Skirt_Side03_026",
      "rotation": [
        -0.0003321087278891355,
        -0.0004291524237487465,
        -0.03451700881123543,
        0.9994039535522461
      ],
      "translation": [
        192.49270629882813,
        -0.22344970703125,
        0.00020742416381835938
      ]
    },
    {
      "children": [
        35
      ],
      "name": "Bip001_Spine2_027",
      "rotation": [
        -1.1906173540410236e-06,
        5.930234081574781e-08,
        -0.04974648728966713,
        0.9987618923187256
      ],
      "translation": [
        219.953125,
        6.8970561027526855,
        -3.051792737096548e-05
      ]
    },
    {
      "children": [
        36,
        66,
        76
      ],
      "name": "Bip001_Neck_028",
      "rotation": [
        2.4879929227950015e-08,
        -2.3711652374913683e-07,
        0.10435410588979721,
        0.9945402145385742
      ],
      "translation": [
        108.75872802734375,
        -27.59679412841797,
        -5.076802335679531e-05
      ]
    },
    {
      "children": [
        37,
        43,
        44,
        47,
        48,
        49,
        50,
        51,
        52,
        53,
        56,
        57,
        58,
        59,
        60,
        61,
        62
      ],
      "name": "Bip001_Head_029",
      "rotation": [
        7.931018508600118e-09,
        1.4463670083841862e-07,
        -0.05475141108036041,
        0.9985001087188721
      ],
      "translation": [
        43.84674072265625,
        -3.3768157958984375,
        5.843467079102993e-06
      ]
    },
    {
      "children": [
        38,
        39,
        40,
        41,
        42
      ],
      "name": "Bip001_Jaw_030",
      "rotation": [
        1.1928119647564017e-07,
        -2.4517682959412923e-06,
        0.8967236876487732,
        0.44259077310562134
      ],
      "translation": [
        40.889404296875,
        22.143878936767578,
        -0.0006866535404697061
      ]
    },
    {
      "name": "Bip001_L_LipBottomCentre_031",
      "rotation": [
        -0.007601409684866667,
        -0.09309230744838715,
        -0.15813574194908142,
        0.9829899072647095
      ],
      "translation": [
        59.48065185546875,
        -13.43157958984375,
        3.9188718795776367
      ]
    },
    {
      "name": "Bip001_L_LipBottomEdge_032",
      "rotation": [
        0.06101871281862259,
        -0.1548919826745987,
        -0.15089021623134613,
        0.9744318127632141
      ],
      "translation": [
        56.55291748046875,
        -14.37359619140625,
        13.208942413330078
      ]
    },
    {
      "name": "Bip001_R_LipBottomCentre_033",
      "rotation": [
        0.007601457182317972,
        0.09309327602386475,
        -0.1581353396177292,
        0.9829899668693542
      ],
      "translation": [
        59.4805908203125,
        -13.43145751953125,
        -3.918950080871582
      ]
    },
    {
      "name": "Bip001_R_LipBottomEdge_034",
      "rotation": [
        -0.06101877614855766,
        0.1548929065465927,
        -0.15088938176631927,
        0.9744318723678589
      ],
      "translation": [
        56.55291748046875,
        -14.37353515625,
        -13.209010124206543
      ]
    },
    {
      "name": "Bip001_TeethBottom_035",
      "rotation": [
        -1.118079993034371e-07,
        -2.663253553691902e-06,
        0.975500762462616,
        0.21999602019786835
      ],
      "translation": [
        51.9659423828125,
        -11.5216064453125,
        -0.0001491229049861431
      ]
    },
    {
      "name": "Bip001_L_Eye_036",
      "rotation": [
        -5.04753700170113e-07,
        -2.529013727325946e-06,
        0.7073887586593628,
        0.7068246603012085
      ],
      "translation": [
        67.6322021484375,
        51.39990997314453,
        -27.898056030273438
      ]
    },
    {
      "children": [
        45
      ],
      "name": "Bip001_L_Eyebrow_037",
      "rotation": [
        0.6418935060501099,
        -0.4975229501724243,
        0.31264686584472656,
        0.49264147877693176
      ],
      "translation": [
        90.8050537109375,
        79.95802307128906,
        13.224987983703613
      ]
    },
    {
      "children": [
        46
      ],
      "name": "Bip001_L_Eyebrow02_038",
      "rotation": [
        0.024868730455636978,
        -0.10321224480867386,
        0.08275675028562546,
        0.990898609161377
      ],
      "translation": [
        14.499481201171875,
        -0.0108642578125,
        -0.000335693359375
      ]
    },
    {
      "name": "Bip001_L_Eyebrow03_039",
      "rotation": [
        -0.00546423951163888,
        -0.1001170426607132,
        0.21911776065826416,
        0.9705328941345215
      ],
      "translation": [
        14.298629760742188,
        -0.0091552734375,
        0.0005645751953125
      ]
    },
    {
      "name": "Bip001_L_EyelashBottom_040",
      "rotation": [
        0.04522998258471489,
        -0.12627097964286804,
        0.9637109041213989,
        0.23080553114414215
      ],
      "translation": [
        71.9970703125,
        59.59220886230469,
        30.997745513916016
      ]
    },
    {
      "name": "Bip001_L_EyelashTop_041",
      "rotation": [
        0.15476852655410767,
        -0.014736216515302658,
        0.5211391448974609,
        0.8391922116279602
      ],
      "translation": [
        71.0008544921875,
        59.083858489990234,
        30.968034744262695
      ]
    },
    {
      "name": "Bip001_L_LipCheek_042",
      "rotation": [
        0.1807827353477478,
        -0.11905750632286072,
        0.7730293869972229,
        0.5962956547737122
      ],
      "translation": [
        26.0059814453125,
        74.370361328125,
        23.770816802978516
      ]
    },
    {
      "name": "Bip001_L_LipTopCentre_043",
      "rotation": [
        0.04026901721954346,
        -0.11670862883329391,
        0.7500444054603577,
        0.6497622132301331
      ],
      "translation": [
        26.165283203125,
        81.66392517089844,
        3.8496642112731934
      ]
    },
    {
      "name": "Bip001_L_LipTopEdge_044",
      "rotation": [
        0.09169060736894608,
        -0.19147217273712158,
        0.734523594379425,
        0.6445202231407166
      ],
      "translation": [
        24.613037109375,
        78.75456237792969,
        12.949206352233887
      ]
    },
    {
      "name": "Bip001_R_Eye_045",
      "rotation": [
        5.06367200614477e-07,
        -1.5170869573921664e-06,
        0.7073887586593628,
        0.7068246603012085
      ],
      "translation": [
        67.6322021484375,
        51.399749755859375,
        27.898338317871094
      ]
    },
    {
      "children": [
        54
      ],
      "name": "Bip001_R_Eyebrow_046",
      "rotation": [
        0.6418935060501099,
        -0.4975212514400482,
        -0.31264951825141907,
        -0.49264150857925415
      ],
      "translation": [
        90.8048095703125,
        79.95806884765625,
        -13.224590301513672
      ]
    },
    {
      "children": [
        55
      ],
      "name": "Bip001_R_Eyebrow02_047",
      "rotation": [
        -0.024868641048669815,
        0.1032119020819664,
        0.08275721967220306,
        0.990898609161377
      ],
      "translation": [
        14.49951171875,
        -0.01123046875,
        0.000335693359375
      ]
    },
    {
      "name": "Bip001_R_Eyebrow03_048",
      "rotation": [
        0.005464216694235802,
        0.10011586546897888,
        0.21911807358264923,
        0.9705329537391663
      ],
      "translation": [
        14.29864501953125,
        -0.009521484375,
        -0.0005645751953125
      ]
    },
    {
      "name": "Bip001_R_EyelashBottom_049",
      "rotation": [
        -0.04522998631000519,
        0.1262655109167099,
        0.9637116193771362,
        0.2308054268360138
      ],
      "translation": [
        71.996826171875,
        59.592376708984375,
        -30.997400283813477
      ]
    },
    {
      "name": "Bip001_R_EyelashTop_050",
      "rotation": [
        -0.15476857125759125,
        0.014733191579580307,
        0.5211390852928162,
        0.839192271232605
      ],
      "translation": [
        71.0008544921875,
        59.08407211303711,
        -30.967729568481445
      ]
    },
    {
      "name": "Bip001_R_LipCheek_051",
      "rotation": [
        -0.18078263103961945,
        0.11905307322740555,
        0.7730301022529602,
        0.5962956547737122
      ],
      "translation": [
        26.0059814453125,
        74.37049865722656,
        -23.770395278930664
      ]
    },
    {
      "name": "Bip001_R_LipTopCentre_052",
      "rotation": [
        -0.04026889055967331,
        0.11670444905757904,
        0.7500451803207397,
        0.6497620940208435
      ],
      "translation": [
        26.165283203125,
        81.6639404296875,
        -3.849220037460327
      ]
    },
    {
      "name": "Bip001_R_LipTopEdge_053",
      "rotation": [
        -0.09169042855501175,
        0.19146783649921417,
        0.7345247268676758,
        0.6445203423500061
      ],
      "translation": [
        24.613037109375,
        78.75460815429688,
        -12.948740005493164
      ]
    },
    {
      "name": "Bip001_TeethTop_054",
      "rotation": [
        -4.8150173626027026e-08,
        1.8111513782059774e-06,
        -0.637718141078949,
        0.7702698111534119
      ],
      "translation": [
        25.5780029296875,
        73.47158813476563,
        -2.40871449932456e-05
      ]
    },
    {
      "children": [
        63
      ],
      "name": "Bip001_Ponytail1_055",
      "rotation": [
        9.27754442159312e-08,
        -2.85975852420961e-06,
        0.9989656209945679,
        -0.045471906661987305
      ],
      "translation": [
        13.497314453125,
        -54.1600456237793,
        10.804439544677734
      ]
    },
    {
      "children": [
        64
      ],
      "name": "Bip001_Ponytail11_056",
      "rotation": [
        5.7131632758000706e-09,
        -2.3835021067952766e-07,
        0.02396354265511036,
        0.9997129440307617
      ],
      "translation": [
        86.79058837890625,
        -0.0690155029296875,
        4.76837158203125e-06
      ]
    },
    {
      "children": [
        65
      ],
      "name": "Bip001_Ponytail12_057",
      "rotation": [
        6.425348253458196e-09,
        2.1676281392046803e-07,
        -0.029626337811350822,
        0.999561071395874
      ],
      "translation": [
        86.78289794921875,
        -0.0689849853515625,
        2.6702880859375e-05
      ]
    },
    {
      "name": "Bip001_Ponytail13_058",
      "rotation": [
        8.63786930871413e-10,
        3.647670610007481e-08,
        -0.0035636357497423887,
        0.9999937415122986
      ],
      "translation": [
        86.78668212890625,
        -0.0690765380859375,
        -1.239776611328125e-05
      ]
    },
    {
      "children": [
        67
      ],
      "name": "Bip001_L_Clavicle_059",
      "rotation": [
        0.5568125247955322,
        -0.08839492499828339,
        0.8232457637786865,
        0.06642884016036987
      ],
      "translation": [
        -22.459716796875,
        5.8396759033203125,
        24.469139099121094
      ]
    },
    {
      "children": [
        68
      ],
      "name": "Bip001_L_UpperArm_060",
      "rotation": [
        0.09526180475950241,
        0.210039883852005,
        -0.013748351484537125,
        0.9729436635971069
      ],
      "translation": [
        59.96002197265625,
        1.52587890625e-05,
        6.103515625e-05
      ]
    },
    {
      "children": [
        69
      ],
      "name": "Bip001_L_Forearm_061",
      "rotation": [
        2.4870681070154887e-09,
        8.941602658296688e-08,
        -0.059012919664382935,
        0.9982572197914124
      ],
      "translation": [
        173.46566772460938,
        -1.4210854715202004e-14,
        -0.00018310546875
      ]
    },
    {
      "children": [
        70,
        72,
        74
      ],
      "name": "Bip001_L_Hand_062",
      "rotation": [
        -0.7068252563476563,
        4.283868193510898e-08,
        8.361811154600218e-08,
        0.707388162612915
      ],
      "translation": [
        149.79190063476563,
        1.1444091796875e-05,
        -1.1368683772161603e-13
      ]
    },
    {
      "children": [
        71
      ],
      "name": "Bip001_L_Finger0_063",
      "rotation": [
        0.6242819428443909,
        0.29798391461372375,
        0.06613413244485855,
        0.7190994024276733
      ],
      "translation": [
        30.87744140625,
        8.0430908203125,
        -25.400859832763672
      ]
    },
    {
      "name": "Bip001_L_Finger01_064",
      "rotation": [
        4.6694941246983035e-09,
        1.5153639765230764e-07,
        0.15392887592315674,
        0.9880819320678711
      ],
      "translation": [
        21.4171142578125,
        1.52587890625e-05,
        3.0517578125e-05
      ]
    },
    {
      "children": [
        73
      ],
      "name": "Bip001_L_Finger1_065",
      "rotation": [
        0.0031349908094853163,
        -0.02993888594210148,
        0.11688048392534256,
        0.9926896691322327
      ],
      "translation": [
        63.77203369140625,
        -4.47747802734375,
        -14.206064224243164
      ]
    },
    {
      "name": "Bip001_L_Finger11_066",
      "rotation": [
        -5.108376388562874e-09,
        -4.89981699658415e-09,
        0.13055568933486938,
        0.9914410710334778
      ],
      "translation": [
        17.020355224609375,
        -1.1368683772161603e-13,
        -3.814697265625e-06
      ]
    },
    {
      "children": [
        75
      ],
      "name": "Bip001_L_Finger2_067",
      "rotation": [
        -0.12247776240110397,
        -0.05346594378352165,
        0.21422778069972992,
        0.9675986170768738
      ],
      "translation": [
        62.7242431640625,
        2.008544921875,
        6.495113372802734
      ]
    },
    {
      "name": "Bip001_L_Finger21_068",
      "rotation": [
        -0.07620174437761307,
        -0.05362224951386452,
        0.16647620499134064,
        0.9816331267356873
      ],
      "translation": [
        18.119171142578125,
        -6.103515625e-05,
        1.52587890625e-05
      ]
    },
    {
      "children": [
        77
      ],
      "name": "Bip001_R_Clavicle_069",
      "rotation": [
        -0.5568124055862427,
        0.0883927047252655,
        0.8232458233833313,
        0.0664307102560997
      ],
      "translation": [
        -22.45941162109375,
        5.8397674560546875,
        -24.469133377075195
      ]
    },
    {
      "children": [
        78
      ],
      "name": "Bip001_R_UpperArm_070",
      "rotation": [
        -0.09526173025369644,
        -0.21003982424736023,
        -0.013748332858085632,
        0.9729437232017517
      ],
      "translation": [
        59.96026611328125,
        3.0517578125e-05,
        0.000244140625
      ]
    },
    {
      "children": [
        79
      ],
      "name": "Bip001_R_Forearm_071",
      "rotation": [
        4.648496254588963e-09,
        -2.748003768981988e-10,
        -0.05901293084025383,
        0.9982572197914124
      ],
      "translation": [
        173.46575927734375,
        -7.62939453125e-06,
        -0.0001220703125
      ]
    },
    {
      "children": [
        80,
        82,
        84
      ],
      "name": "Bip001_R_Hand_072",
      "rotation": [
        0.7068252563476563,
        2.0415139800888937e-08,
        -6.504187743949785e-10,
        0.707388162612915
      ],
      "translation": [
        149.79193115234375,
        9.5367431640625e-06,
        0.00030517578125
      ]
    },
    {
      "children": [
        81
      ],
      "name": "Bip001_R_Finger0_073",
      "rotation": [
        -0.6242818832397461,
        -0.29798391461372375,
        0.06613414734601974,
        0.7190994024276733
      ],
      "translation": [
        30.87750244140625,
        8.04290771484375,
        25.4008731842041
      ]
    },
    {
      "name": "Bip001_R_Finger01_074",
      "rotation": [
        4.220713734071069e-08,
        -2.6488081061870616e-07,
        0.15392881631851196,
        0.9880819320678711
      ],
      "translation": [
        21.41717529296875,
        3.0517578125e-05,
        -3.0517578125e-05
      ]
    },
    {
      "children": [
        83
      ],
      "name": "Bip001_R_Finger1_075",
      "rotation": [
        -0.0031349549535661936,
        0.02993893064558506,
        0.11688057333230972,
        0.9926896691322327
      ],
      "translation": [
        63.77192687988281,
        -4.47772216796875,
        14.206098556518555
      ]
    },
    {
      "name": "Bip001_R_Finger11_076",
      "rotation": [
        1.6484568376995412e-08,
        2.2836712076923504e-08,
        0.13055579364299774,
        0.9914410710334778
      ],
      "translation": [
        17.0205078125,
        -2.2737367544323206e-13,
        -7.62939453125e-06
      ]
    },
    {
      "children": [
        85
      ],
      "name": "Bip001_R_Finger2_077",
      "rotation": [
        0.12247784435749054,
        0.053465940058231354,
        0.21422770619392395,
        0.9675986170768738
      ],
      "translation": [
        62.7242431640625,
        2.00848388671875,
        -6.495105743408203
      ]
    },
    {
      "name": "Bip001_R_Finger21_078",
      "rotation": [
        0.0762019008398056,
        0.053622230887413025,
        0.16647620499134064,
        0.9816331267356873
      ],
      "translation": [
        18.119384765625,
        -6.103515625e-05,
        -1.52587890625e-05
      ]
    }
  ],
  "samplers": [
    {
      "magFilter": 9729,
      "minFilter": 9987,
      "wrapS": 10497,
      "wrapT": 10497
    }
  ],
  "scene": 0,
  "scenes": [
    {
      "name": "Sketchfab_Scene",
      "nodes": [
        0
      ]
    }
  ],
  "skins": [
    {
      "inverseBindMatrices": 5,
      "joints": [
        4,
        7,
        8,
        9,
        10,
        11,
        12,
        13,
        14,
        15,
        16,
        17,
        18,
        19,
        20,
        21,
        22,
        23,
        24,
        25,
        26,
        27,
        28,
        29,
        30,
        31,
        32,
        33,
        34,
        35,
        36,
        37,
        38,
        39,
        40,
        41,
        42,
        43,
        44,
        45,
        46,
        47,
        48,
        49,
        50,
        51,
        52,
        53,
        54,
        55,
        56,
        57,
        58,
        59,
        60,
        61,
        62,
        63,
        64,
        65,
        66,
        67,
        68,
        69,
        70,
        71,
        72,
        73,
        74,
        75,
        76,
        77,
        78,
        79,
        80,
        81,
        82,
        83,
        84,
        85
      ],
      "skeleton": 4
    }
  ],
  "textures": [
    {
      "sampler": 0,
      "source": 0
    }
  ]
}
